<svg width="480" height="90" viewBox="0 0 480 90" fill="none" xmlns="http://www.w3.org/2000/svg">
<path d="M175.451 57.5254V74C175.451 75.4576 175.4 76.8814 175.298 78.2712C175.23 79.661 174.942 80.8983 174.434 81.9831C173.96 83.0678 173.197 83.9492 172.147 84.6271C171.097 85.2712 169.589 85.5932 167.624 85.5932C165.726 85.5932 164.252 85.2712 163.202 84.6271C162.185 83.9492 161.44 83.0678 160.966 81.9831C160.491 80.8983 160.203 79.661 160.102 78.2712C160.034 76.8814 160 75.4576 160 74V26C160 24.5424 160.034 23.1186 160.102 21.7288C160.203 20.339 160.491 19.1017 160.966 18.0169C161.44 16.9322 162.185 16.0678 163.202 15.4237C164.252 14.7458 165.726 14.4068 167.624 14.4068H184.396C188.597 14.6102 192.358 15.4915 195.679 17.0508C197.102 17.7288 198.474 18.5763 199.795 19.5932C201.151 20.6102 202.354 21.8644 203.404 23.3559C204.488 24.8136 205.352 26.5593 205.996 28.5932C206.64 30.5932 206.962 32.9153 206.962 35.5593C206.962 39.1864 206.386 42.3729 205.234 45.1186C204.115 47.8305 202.472 50.1186 200.304 51.9831C198.169 53.8136 195.543 55.2034 192.426 56.1525C189.343 57.0678 185.853 57.5254 181.956 57.5254H175.451ZM182.363 45.4237C184.057 45.322 185.582 44.9153 186.937 44.2034C187.513 43.8983 188.072 43.5085 188.614 43.0339C189.156 42.5593 189.648 41.9831 190.088 41.3051C190.528 40.5932 190.867 39.7627 191.104 38.8136C191.376 37.8644 191.511 36.7797 191.511 35.5593C191.511 34.4068 191.376 33.4068 191.104 32.5593C190.867 31.678 190.545 30.9322 190.139 30.322C189.732 29.678 189.275 29.1356 188.767 28.6949C188.258 28.2542 187.733 27.8814 187.191 27.5763C185.903 26.9322 184.463 26.5424 182.871 26.4068H175.451V45.4237H182.363Z" fill="#8758FF"/>
<path d="M242.437 14.4068C243.792 14.4068 245.165 14.4576 246.554 14.5593C247.943 14.661 249.197 14.9492 250.315 15.4237C251.433 15.8983 252.348 16.6271 253.059 17.6102C253.771 18.5593 254.127 19.8983 254.127 21.6271C254.127 23.3559 253.771 24.7119 253.059 25.6949C252.348 26.6441 251.433 27.3559 250.315 27.8305C249.197 28.3051 247.943 28.5932 246.554 28.6949C245.165 28.7966 243.792 28.8475 242.437 28.8475H230.341V42.678H236.745C238.1 42.678 239.455 42.7288 240.811 42.8305C242.2 42.8983 243.42 43.1695 244.47 43.6441C245.554 44.0847 246.435 44.7797 247.113 45.7288C247.791 46.6441 248.129 47.9322 248.129 49.5932C248.129 51.2881 247.791 52.5932 247.113 53.5085C246.435 54.4237 245.554 55.1186 244.47 55.5932C243.42 56.0339 242.2 56.3051 240.811 56.4068C239.455 56.4746 238.1 56.5085 236.745 56.5085H230.341V71.1525H242.437C243.792 71.1525 245.165 71.2034 246.554 71.3051C247.943 71.4068 249.197 71.6949 250.315 72.1695C251.433 72.6102 252.348 73.322 253.059 74.3051C253.771 75.2542 254.127 76.5763 254.127 78.2712C254.127 80.0339 253.754 81.4068 253.008 82.3898C252.297 83.3729 251.382 84.1017 250.264 84.5763C249.146 85.0508 247.892 85.339 246.503 85.4407C245.114 85.5424 243.758 85.5932 242.437 85.5932H222.514C220.616 85.5932 219.143 85.2542 218.092 84.5763C217.076 83.8983 216.33 83.017 215.856 81.9322C215.382 80.8136 215.094 79.5593 214.992 78.1695C214.924 76.7797 214.89 75.3559 214.89 73.8983V26.1017C214.89 24.6441 214.924 23.2203 214.992 21.8305C215.094 20.4407 215.382 19.2034 215.856 18.1186C216.33 17 217.076 16.1017 218.092 15.4237C219.143 14.7458 220.616 14.4068 222.514 14.4068H242.437Z" fill="#8758FF"/>
<path d="M295.803 14.4068C297.158 14.4068 298.513 14.4576 299.868 14.5593C301.258 14.661 302.511 14.9492 303.629 15.4237C304.748 15.8983 305.646 16.6271 306.323 17.6102C307.035 18.5593 307.391 19.8983 307.391 21.6271C307.391 23.322 307.035 24.661 306.323 25.6441C305.646 26.5932 304.748 27.3051 303.629 27.7797C302.511 28.2542 301.258 28.5593 299.868 28.6949C298.513 28.7966 297.158 28.8475 295.803 28.8475H290.618V74C290.618 75.4576 290.568 76.8814 290.466 78.2712C290.398 79.661 290.127 80.8983 289.653 81.9831C289.178 83.0678 288.416 83.9492 287.366 84.6271C286.315 85.2712 284.824 85.5932 282.893 85.5932C280.962 85.5932 279.471 85.2712 278.421 84.6271C277.37 83.9492 276.608 83.0678 276.134 81.9831C275.659 80.8983 275.371 79.661 275.27 78.2712C275.202 76.8814 275.168 75.4576 275.168 74V28.8475H269.984C268.628 28.8475 267.256 28.7966 265.867 28.6949C264.512 28.5593 263.275 28.2542 262.157 27.7797C261.039 27.3051 260.124 26.5932 259.412 25.6441C258.735 24.661 258.396 23.322 258.396 21.6271C258.396 19.8983 258.735 18.5593 259.412 17.6102C260.124 16.6271 261.039 15.8983 262.157 15.4237C263.275 14.9492 264.512 14.661 265.867 14.5593C267.256 14.4576 268.628 14.4068 269.984 14.4068H295.803Z" fill="#8758FF"/>
<path d="M330.524 64.1356C330.524 67.017 329.796 69.1525 328.339 70.5424C326.882 71.8983 324.832 72.5763 322.189 72.5763C319.478 72.5763 317.394 71.8983 315.937 70.5424C314.48 69.1525 313.752 67.017 313.752 64.1356C313.752 61.2203 314.48 59.1017 315.937 57.7797C317.394 56.4576 319.478 55.7966 322.189 55.7966C325.001 55.7966 327.085 56.4576 328.44 57.7797C329.829 59.1017 330.524 61.2203 330.524 64.1356ZM330.422 37.4915C330.422 40.3729 329.694 42.5085 328.237 43.8983C326.78 45.2542 324.73 45.9322 322.087 45.9322C319.377 45.9322 317.293 45.2542 315.836 43.8983C314.379 42.5085 313.65 40.3729 313.65 37.4915C313.65 34.5763 314.379 32.4576 315.836 31.1356C317.293 29.8136 319.377 29.1525 322.087 29.1525C324.899 29.1525 326.983 29.8136 328.339 31.1356C329.728 32.4576 330.422 34.5763 330.422 37.4915Z" fill="#8758FF"/>
<path d="M367.678 14.4068C370.762 14.4068 373.625 14.7966 376.268 15.5763C378.944 16.3559 381.265 17.5254 383.231 19.0847C385.23 20.6102 386.788 22.5254 387.906 24.8305C389.058 27.1356 389.634 29.8305 389.634 32.9153V64.4407C389.634 67.0847 389.346 69.4237 388.77 71.4576C388.194 73.4576 387.432 75.2034 386.483 76.6949C385.568 78.1525 384.518 79.4068 383.332 80.4576C382.146 81.4746 380.943 82.3051 379.724 82.9492C376.81 84.5085 373.506 85.3898 369.813 85.5932H352.939C351.008 85.5932 349.517 85.2712 348.467 84.6271C347.416 83.9492 346.654 83.0678 346.18 81.9831C345.705 80.8644 345.417 79.6102 345.316 78.2203C345.248 76.8305 345.214 75.3898 345.214 73.8983V26C345.214 24.5424 345.248 23.1186 345.316 21.7288C345.417 20.339 345.705 19.1017 346.18 18.0169C346.654 16.9322 347.416 16.0678 348.467 15.4237C349.517 14.7458 351.008 14.4068 352.939 14.4068H367.678ZM360.665 26.3051V73.4915H367.272C368.729 73.4237 370.033 73.0848 371.185 72.4746C371.66 72.2373 372.134 71.9153 372.608 71.5085C373.083 71.1017 373.506 70.6271 373.879 70.0847C374.252 69.5085 374.54 68.8305 374.743 68.0508C374.98 67.2712 375.099 66.3729 375.099 65.3559V35.3559C375.099 34.2373 374.98 33.2542 374.743 32.4068C374.54 31.5254 374.252 30.7627 373.879 30.1186C373.506 29.4746 373.083 28.9322 372.608 28.4915C372.134 28.0508 371.66 27.6949 371.185 27.4237C370.033 26.7797 368.729 26.4068 367.272 26.3051H360.665Z" fill="#8758FF"/>
<path d="M402.544 26.1017C402.544 24.6441 402.612 23.2203 402.747 21.8305C402.916 20.4407 403.272 19.2034 403.814 18.1186C404.39 17 405.237 16.1017 406.356 15.4237C407.474 14.7458 409.015 14.4068 410.981 14.4068C412.946 14.4068 414.487 14.7458 415.606 15.4237C416.724 16.1017 417.554 17 418.096 18.1186C418.672 19.2034 419.028 20.4407 419.163 21.8305C419.333 23.2203 419.417 24.6441 419.417 26.1017V73.8983C419.417 75.3898 419.35 76.8305 419.214 78.2203C419.079 79.6102 418.723 80.8644 418.147 81.9831C417.605 83.0678 416.758 83.9492 415.606 84.6271C414.487 85.2712 412.946 85.5932 410.981 85.5932C409.015 85.5932 407.474 85.2712 406.356 84.6271C405.237 83.9492 404.39 83.0678 403.814 81.9831C403.272 80.8644 402.916 79.6102 402.747 78.2203C402.612 76.8305 402.544 75.3898 402.544 73.8983V26.1017Z" fill="#8758FF"/>
<path d="M433.14 34.5424C433.14 31.2881 433.614 28.5254 434.563 26.2542C435.512 23.9492 436.715 22.0339 438.172 20.5085C439.662 18.9831 441.289 17.7966 443.051 16.9492C444.847 16.0678 446.575 15.4068 448.235 14.9661C449.929 14.5254 451.454 14.2542 452.809 14.1525C454.164 14.0508 455.164 14 455.808 14H457.536C458.179 14 459.179 14.0508 460.534 14.1525C461.89 14.2542 463.397 14.5254 465.058 14.9661C466.718 15.4068 468.429 16.0678 470.191 16.9492C471.987 17.7966 473.596 18.9831 475.019 20.5085C476.476 22.0339 477.662 23.9492 478.577 26.2542C479.526 28.5254 480 31.2881 480 34.5424V64.9492C480 68.3051 479.526 71.1525 478.577 73.4915C477.662 75.8305 476.476 77.7797 475.019 79.339C473.596 80.8983 471.987 82.1356 470.191 83.0508C468.429 83.9322 466.718 84.5932 465.058 85.0339C463.397 85.4746 461.89 85.7458 460.534 85.8475C459.179 85.9492 458.179 86 457.536 86H455.808C455.164 86 454.164 85.9492 452.809 85.8475C451.454 85.7458 449.929 85.4746 448.235 85.0339C446.575 84.5932 444.847 83.9322 443.051 83.0508C441.289 82.1356 439.662 80.8983 438.172 79.339C436.715 77.7797 435.512 75.8305 434.563 73.4915C433.614 71.1525 433.14 68.3051 433.14 64.9492V34.5424ZM450.014 66.8814C450.081 68.1356 450.369 69.2373 450.878 70.1864C451.318 71.0339 451.979 71.7966 452.86 72.4746C453.775 73.1525 455.062 73.4915 456.722 73.4915C458.349 73.4915 459.603 73.1525 460.483 72.4746C461.364 71.7966 462.025 71.0339 462.466 70.1864C462.94 69.2373 463.228 68.1356 463.33 66.8814V33.7288C463.228 32.5085 462.94 31.4068 462.466 30.4237C462.025 29.6102 461.364 28.8644 460.483 28.1864C459.603 27.4746 458.349 27.1186 456.722 27.1186C455.062 27.1186 453.775 27.4746 452.86 28.1864C451.979 28.8644 451.318 29.6102 450.878 30.4237C450.369 31.4068 450.081 32.5085 450.014 33.7288V66.8814Z" fill="#8758FF"/>
<path d="M93 49.125C93 67.1433 78.3933 81.75 60.375 81.75C42.3567 81.75 27.75 67.1433 27.75 49.125C27.75 31.1067 42.3567 16.5 60.375 16.5C78.3933 16.5 93 31.1067 93 49.125Z" fill="white"/>
<path d="M42 0L31.02 10H12C5.4 10 0 14.5 0 20V80C0 85.5 5.4 90 12 90H108C114.6 90 120 85.5 120 80V20C120 14.5 114.6 10 108 10H88.98L78 0H42Z" fill="#8758FF"/>
<path d="M87 49.5C87 64.4117 74.9117 76.5 60 76.5C45.0883 76.5 33 64.4117 33 49.5C33 34.5883 45.0883 22.5 60 22.5C74.9117 22.5 87 34.5883 87 49.5Z" fill="white"/>
<path d="M100.5 31.5C100.5 34.3995 98.1495 36.75 95.25 36.75C92.3505 36.75 90 34.3995 90 31.5C90 28.6005 92.3505 26.25 95.25 26.25C98.1495 26.25 100.5 28.6005 100.5 31.5Z" fill="#FFC751"/>
<path d="M69.345 53.755C67.8225 51.97 66.545 50.4475 65.005 48.6625C64.2 47.7175 63.1675 46.7725 61.9425 46.3525C61.75 46.2825 61.5575 46.23 61.365 46.195C60.9275 46.125 60.455 46.125 60 46.125C59.545 46.125 59.0725 46.125 58.6175 46.2125C58.425 46.2475 58.2325 46.3 58.04 46.37C56.815 46.79 55.8 47.735 54.9775 48.68C53.455 50.465 52.1775 51.9875 50.6375 53.7725C48.345 56.065 45.5275 58.6025 46.0525 62.155C46.56 63.94 47.8375 65.7075 50.13 66.215C51.4075 66.4775 55.485 65.445 59.825 65.445H60.14C64.48 65.445 68.5575 66.46 69.835 66.215C72.1275 65.7075 73.405 63.9225 73.9125 62.155C74.455 58.585 71.6375 56.0475 69.345 53.755Z" fill="#8758FF"/>
<path d="M73.125 48.75C75.5412 48.75 77.5 46.7912 77.5 44.375C77.5 41.9588 75.5412 40 73.125 40C70.7088 40 68.75 41.9588 68.75 44.375C68.75 46.7912 70.7088 48.75 73.125 48.75Z" fill="#8758FF"/>
<path d="M65.25 41.75C67.6662 41.75 69.625 39.7912 69.625 37.375C69.625 34.9588 67.6662 33 65.25 33C62.8338 33 60.875 34.9588 60.875 37.375C60.875 39.7912 62.8338 41.75 65.25 41.75Z" fill="#8758FF"/>
<path d="M54.75 41.75C57.1662 41.75 59.125 39.7912 59.125 37.375C59.125 34.9588 57.1662 33 54.75 33C52.3338 33 50.375 34.9588 50.375 37.375C50.375 39.7912 52.3338 41.75 54.75 41.75Z" fill="#8758FF"/>
<path d="M46.875 48.75C49.2912 48.75 51.25 46.7912 51.25 44.375C51.25 41.9588 49.2912 40 46.875 40C44.4588 40 42.5 41.9588 42.5 44.375C42.5 46.7912 44.4588 48.75 46.875 48.75Z" fill="#8758FF"/>
</svg>
