<svg width="240" height="180" viewBox="0 0 240 180" fill="none" xmlns="http://www.w3.org/2000/svg">
<g clip-path="url(#clip0_897_3198)">
<path d="M120.75 163.5C156.787 163.5 186 134.287 186 98.25C186 62.2134 156.787 33 120.75 33C84.7134 33 55.5 62.2134 55.5 98.25C55.5 134.287 84.7134 163.5 120.75 163.5Z" fill="white"/>
<path d="M84 0L62.04 20H24C10.8 20 0 29 0 40V160.001C0 171 10.8 180 24 180H216C229.2 180 240 171 240 160.001V40C240 29 229.2 20 216 20H177.96L156 0H84Z" fill="#8758FF"/>
<path d="M120 153C149.823 153 174 128.823 174 99C174 69.1766 149.823 45 120 45C90.1766 45 66 69.1766 66 99C66 128.823 90.1766 153 120 153Z" fill="white"/>
<path d="M190.5 73.5C196.299 73.5 201 68.799 201 63C201 57.201 196.299 52.5 190.5 52.5C184.701 52.5 180 57.201 180 63C180 68.799 184.701 73.5 190.5 73.5Z" fill="#FFC751"/>
<path d="M138.69 107.51C135.645 103.94 133.09 100.895 130.01 97.325C128.4 95.435 126.335 93.5449 123.885 92.7049C123.5 92.565 123.115 92.46 122.73 92.3899C121.855 92.25 120.91 92.25 120 92.25C119.09 92.25 118.145 92.25 117.235 92.425C116.85 92.4949 116.465 92.5999 116.08 92.74C113.63 93.58 111.6 95.4701 109.955 97.3601C106.91 100.93 104.355 103.975 101.275 107.545C96.6897 112.13 91.0548 117.205 92.1048 124.31C93.1197 127.88 95.6748 131.415 100.26 132.43C102.815 132.955 110.97 130.89 119.65 130.89H120.28C128.96 130.89 137.115 132.92 139.67 132.43C144.255 131.415 146.81 127.845 147.825 124.31C148.91 117.17 143.275 112.095 138.69 107.51Z" fill="#8758FF"/>
<path d="M146.25 97.5C151.083 97.5 155 93.5825 155 88.7501C155 83.9175 151.083 80 146.25 80C141.418 80 137.5 83.9175 137.5 88.7501C137.5 93.5825 141.418 97.5 146.25 97.5Z" fill="#8758FF"/>
<path d="M130.5 83.5C135.332 83.5 139.25 79.5825 139.25 74.75C139.25 69.9176 135.332 66 130.5 66C125.668 66 121.75 69.9176 121.75 74.75C121.75 79.5825 125.668 83.5 130.5 83.5Z" fill="#8758FF"/>
<path d="M109.5 83.5C114.332 83.5 118.25 79.5825 118.25 74.75C118.25 69.9176 114.332 66 109.5 66C104.668 66 100.75 69.9176 100.75 74.75C100.75 79.5825 104.668 83.5 109.5 83.5Z" fill="#8758FF"/>
<path d="M93.7501 97.5C98.5825 97.5 102.5 93.5825 102.5 88.7501C102.5 83.9175 98.5825 80 93.7501 80C88.9176 80 85 83.9175 85 88.7501C85 93.5825 88.9176 97.5 93.7501 97.5Z" fill="#8758FF"/>
</g>
<defs>
<clipPath id="clip0_897_3198">
<rect width="240" height="180" fill="white"/>
</clipPath>
</defs>
</svg>
