<svg width="296" height="94" viewBox="0 0 296 94" fill="none" xmlns="http://www.w3.org/2000/svg">
<path d="M 44.9 57.4 V 70.1 C 44.9 71.2 44.8 72.3 44.7 73.4 C 44.7 74.4 44.5 75.4 44.1 76.2 C 43.7 77.1 43.1 77.7 42.3 78.3 C 41.5 78.8 40.3 79 38.8 79 C 37.4 79 36.2 78.8 35.4 78.3 C 34.7 77.7 34.1 77.1 33.7 76.2 C 33.4 75.4 33.1 74.4 33.1 73.4 C 33 72.3 33 71.2 33 70.1 V 33.2 C 33 32.1 33 31 33.1 29.9 C 33.1 28.9 33.4 27.9 33.7 27.1 C 34.1 26.3 34.7 25.6 35.4 25.1 C 36.2 24.6 37.4 24.3 38.8 24.3 H 51.7 C 55 24.5 57.8 25.1 60.4 26.3 C 61.5 26.9 62.5 27.5 63.6 28.3 C 64.6 29.1 65.5 30 66.3 31.2 C 67.2 32.3 67.8 33.6 68.3 35.2 C 68.8 36.7 69.1 38.5 69.1 40.6 C 69.1 43.3 68.6 45.8 67.7 47.9 C 66.9 50 65.6 51.7 64 53.2 C 62.3 54.6 60.3 55.7 57.9 56.4 C 55.5 57.1 52.8 57.4 49.9 57.4 H 44.9 Z M 50.2 48.1 C 51.5 48.1 52.6 47.8 53.7 47.2 C 54.1 47 54.6 46.7 55 46.3 C 55.4 45.9 55.8 45.5 56.1 45 C 56.4 44.4 56.7 43.8 56.9 43.1 C 57.1 42.3 57.2 41.5 57.2 40.6 C 57.2 39.7 57.1 38.9 56.9 38.3 C 56.7 37.6 56.5 37 56.1 36.5 C 55.8 36 55.5 35.6 55.1 35.3 C 54.7 35 54.3 34.7 53.9 34.4 C 52.9 33.9 51.8 33.6 50.6 33.5 H 44.9 V 48.1 H 50.2 Z M 96.3 24.3 C 97.4 24.3 98.4 24.4 99.5 24.4 C 100.6 24.5 101.5 24.7 102.4 25.1 C 103.3 25.5 104 26 104.5 26.8 C 105 27.5 105.3 28.5 105.3 29.9 C 105.3 31.2 105 32.2 104.5 33 C 104 33.7 103.3 34.3 102.4 34.6 C 101.5 35 100.6 35.2 99.5 35.3 C 98.4 35.4 97.4 35.4 96.3 35.4 H 87 V 46 H 92 C 93 46 94 46.1 95.1 46.1 C 96.2 46.2 97.1 46.4 97.9 46.8 C 98.7 47.1 99.4 47.6 99.9 48.4 C 100.5 49.1 100.7 50.1 100.7 51.3 C 100.7 52.6 100.5 53.6 99.9 54.4 C 99.4 55.1 98.7 55.6 97.9 56 C 97.1 56.3 96.2 56.5 95.1 56.6 C 94 56.6 93 56.7 92 56.7 H 87 V 67.9 H 96.3 C 97.4 67.9 98.4 67.9 99.5 68 C 100.6 68.1 101.5 68.3 102.4 68.7 C 103.3 69 104 69.6 104.5 70.3 C 105 71.1 105.3 72.1 105.3 73.4 C 105.3 74.7 105 75.8 104.5 76.5 C 103.9 77.3 103.2 77.9 102.4 78.2 C 101.5 78.6 100.5 78.8 99.5 78.9 C 98.4 79 97.4 79 96.3 79 H 81 C 79.6 79 78.4 78.7 77.6 78.2 C 76.8 77.7 76.3 77 75.9 76.2 C 75.5 75.3 75.3 74.4 75.2 73.3 C 75.2 72.2 75.2 71.1 75.2 70 V 33.3 C 75.2 32.2 75.2 31.1 75.2 30 C 75.3 28.9 75.5 28 75.9 27.2 C 76.3 26.3 76.8 25.6 77.6 25.1 C 78.4 24.6 79.6 24.3 81 24.3 H 96.3 Z M 137.4 24.3 C 138.4 24.3 139.4 24.4 140.5 24.4 C 141.5 24.5 142.5 24.7 143.4 25.1 C 144.2 25.5 144.9 26 145.4 26.8 C 146 27.5 146.3 28.5 146.3 29.9 C 146.3 31.2 146 32.2 145.4 32.9 C 144.9 33.7 144.2 34.2 143.4 34.6 C 142.5 35 141.5 35.2 140.5 35.3 C 139.4 35.4 138.4 35.4 137.4 35.4 H 133.4 V 70.1 C 133.4 71.2 133.3 72.3 133.3 73.4 C 133.2 74.4 133 75.4 132.6 76.2 C 132.3 77.1 131.7 77.7 130.9 78.3 C 130.1 78.8 128.9 79 127.4 79 C 125.9 79 124.8 78.8 124 78.3 C 123.2 77.7 122.6 77.1 122.2 76.2 C 121.9 75.4 121.6 74.4 121.6 73.4 C 121.5 72.3 121.5 71.2 121.5 70.1 V 35.4 H 117.5 C 116.5 35.4 115.4 35.4 114.3 35.3 C 113.3 35.2 112.4 35 111.5 34.6 C 110.6 34.2 109.9 33.7 109.4 32.9 C 108.9 32.2 108.6 31.2 108.6 29.9 C 108.6 28.5 108.9 27.5 109.4 26.8 C 109.9 26 110.6 25.5 111.5 25.1 C 112.4 24.7 113.3 24.5 114.3 24.4 C 115.4 24.4 116.5 24.3 117.5 24.3 H 137.4 Z" fill="#8758ff"/>
<path d="M 165.1 62.5 C 165.1 64.7 164.5 66.4 163.4 67.4 C 162.3 68.5 160.7 69 158.7 69 C 156.6 69 155 68.5 153.9 67.4 C 152.7 66.4 152.2 64.7 152.2 62.5 C 152.2 60.3 152.7 58.6 153.9 57.6 C 155 56.6 156.6 56.1 158.7 56.1 C 160.8 56.1 162.4 56.6 163.5 57.6 C 164.5 58.6 165.1 60.3 165.1 62.5 Z M 165 42 C 165 44.3 164.4 45.9 163.3 47 C 162.2 48 160.6 48.5 158.6 48.5 C 156.5 48.5 154.9 48 153.8 47 C 152.7 45.9 152.1 44.3 152.1 42 C 152.1 39.8 152.7 38.2 153.8 37.2 C 154.9 36.1 156.5 35.6 158.6 35.6 C 160.7 35.6 162.3 36.1 163.4 37.2 C 164.5 38.2 165 39.8 165 42 Z" fill="#8758ff"/>
<path d="M 192.6 24.3 C 195 24.3 197.2 24.6 199.2 25.2 C 201.3 25.8 203 26.7 204.5 27.9 C 206.1 29.1 207.3 30.5 208.1 32.3 C 209 34.1 209.5 36.2 209.5 38.5 V 62.8 C 209.5 64.8 209.2 66.6 208.8 68.1 C 208.4 69.7 207.8 71 207 72.2 C 206.3 73.3 205.5 74.2 204.6 75.1 C 203.7 75.8 202.8 76.5 201.9 77 C 199.6 78.2 197.1 78.8 194.2 79 H 181.3 C 179.8 79 178.6 78.8 177.8 78.3 C 177 77.7 176.4 77.1 176.1 76.2 C 175.7 75.4 175.5 74.4 175.4 73.3 C 175.4 72.3 175.3 71.2 175.3 70 V 33.2 C 175.3 32.1 175.4 31 175.4 29.9 C 175.5 28.9 175.7 27.9 176.1 27.1 C 176.4 26.3 177 25.6 177.8 25.1 C 178.6 24.6 179.8 24.3 181.3 24.3 H 192.6 Z M 187.2 33.5 V 69.7 H 192.3 C 193.4 69.7 194.4 69.4 195.3 68.9 C 195.7 68.7 196 68.5 196.4 68.2 C 196.7 67.9 197.1 67.5 197.4 67.1 C 197.6 66.6 197.9 66.1 198 65.5 C 198.2 64.9 198.3 64.2 198.3 63.5 V 40.4 C 198.3 39.5 198.2 38.8 198 38.1 C 197.9 37.5 197.6 36.9 197.4 36.4 C 197.1 35.9 196.7 35.5 196.4 35.1 C 196 34.8 195.7 34.5 195.3 34.3 C 194.4 33.8 193.4 33.5 192.3 33.5 H 187.2 Z M 219.4 33.3 C 219.4 32.2 219.4 31.1 219.5 30 C 219.7 28.9 220 28 220.4 27.2 C 220.8 26.3 221.5 25.6 222.3 25.1 C 223.2 24.6 224.4 24.3 225.9 24.3 C 227.4 24.3 228.6 24.6 229.4 25.1 C 230.3 25.6 230.9 26.3 231.3 27.2 C 231.8 28 232.1 28.9 232.2 30 C 232.3 31.1 232.4 32.2 232.4 33.3 V 70 C 232.4 71.2 232.3 72.3 232.2 73.3 C 232.1 74.4 231.8 75.4 231.4 76.2 C 231 77.1 230.3 77.7 229.4 78.3 C 228.6 78.8 227.4 79 225.9 79 C 224.4 79 223.2 78.8 222.3 78.3 C 221.5 77.7 220.8 77.1 220.4 76.2 C 220 75.4 219.7 74.4 219.5 73.3 C 219.4 72.3 219.4 71.2 219.4 70 V 33.3 Z M 242.9 39.8 C 242.9 37.3 243.3 35.2 244 33.4 C 244.7 31.6 245.7 30.2 246.8 29 C 247.9 27.8 249.2 26.9 250.5 26.3 C 251.9 25.6 253.2 25.1 254.5 24.7 C 255.8 24.4 257 24.2 258 24.1 C 259.1 24 259.8 24 260.3 24 H 261.7 C 262.2 24 262.9 24 264 24.1 C 265 24.2 266.2 24.4 267.4 24.7 C 268.7 25.1 270 25.6 271.4 26.3 C 272.8 26.9 274 27.8 275.1 29 C 276.2 30.2 277.1 31.6 277.8 33.4 C 278.6 35.2 278.9 37.3 278.9 39.8 V 63.1 C 278.9 65.7 278.6 67.9 277.8 69.7 C 277.1 71.5 276.2 73 275.1 74.2 C 274 75.4 272.8 76.3 271.4 77 C 270 77.7 268.7 78.2 267.4 78.6 C 266.2 78.9 265 79.1 264 79.2 C 262.9 79.3 262.2 79.3 261.7 79.3 H 260.3 C 259.8 79.3 259.1 79.3 258 79.2 C 257 79.1 255.8 78.9 254.5 78.6 C 253.2 78.2 251.9 77.7 250.5 77 C 249.2 76.3 247.9 75.4 246.8 74.2 C 245.7 73 244.7 71.5 244 69.7 C 243.3 67.9 242.9 65.7 242.9 63.1 V 39.8 Z M 255.9 64.6 C 255.9 65.6 256.1 66.4 256.5 67.2 C 256.9 67.8 257.4 68.4 258.1 68.9 C 258.8 69.4 259.8 69.7 261 69.7 C 262.3 69.7 263.2 69.4 263.9 68.9 C 264.6 68.4 265.1 67.8 265.4 67.2 C 265.8 66.4 266 65.6 266.1 64.6 V 39.2 C 266 38.2 265.8 37.4 265.4 36.6 C 265.1 36 264.6 35.4 263.9 34.9 C 263.2 34.4 262.3 34.1 261 34.1 C 259.8 34.1 258.8 34.4 258.1 34.9 C 257.4 35.4 256.9 36 256.5 36.6 C 256.1 37.4 255.9 38.2 255.9 39.2 V 64.6 Z" fill="#8758ff"/>
</svg>
