<svg width="296" height="94" viewBox="0 0 296 94" fill="none" xmlns="http://www.w3.org/2000/svg">
<path d="M37.8516 64.4375V77.0938C37.8516 78.2135 37.8125 79.3073 37.7344 80.375C37.6823 81.4427 37.4609 82.3932 37.0703 83.2266C36.7057 84.0599 36.1198 84.737 35.3125 85.2578C34.5052 85.7526 33.3464 86 31.8359 86C30.3776 86 29.2448 85.7526 28.4375 85.2578C27.6562 84.737 27.0833 84.0599 26.7188 83.2266C26.3542 82.3932 26.1328 81.4427 26.0547 80.375C26.0026 79.3073 25.9766 78.2135 25.9766 77.0938V40.2188C25.9766 39.099 26.0026 38.0052 26.0547 36.9375C26.1328 35.8698 26.3542 34.9193 26.7188 34.0859C27.0833 33.2526 27.6562 32.5885 28.4375 32.0938C29.2448 31.5729 30.3776 31.3125 31.8359 31.3125H44.7266C47.9557 31.4688 50.8464 32.1458 53.3984 33.3438C54.4922 33.8646 55.5469 34.5156 56.5625 35.2969C57.6042 36.0781 58.5286 37.0417 59.3359 38.1875C60.1693 39.3073 60.8333 40.6484 61.3281 42.2109C61.8229 43.7474 62.0703 45.5312 62.0703 47.5625C62.0703 50.349 61.6276 52.7969 60.7422 54.9062C59.8828 56.9896 58.6198 58.7474 56.9531 60.1797C55.3125 61.5859 53.2943 62.6536 50.8984 63.3828C48.5286 64.0859 45.8464 64.4375 42.8516 64.4375H37.8516ZM43.1641 55.1406C44.4661 55.0625 45.638 54.75 46.6797 54.2031C47.1224 53.9688 47.5521 53.6693 47.9688 53.3047C48.3854 52.9401 48.763 52.4974 49.1016 51.9766C49.4401 51.4297 49.7005 50.7917 49.8828 50.0625C50.0911 49.3333 50.1953 48.5 50.1953 47.5625C50.1953 46.6771 50.0911 45.9089 49.8828 45.2578C49.7005 44.5807 49.4531 44.0078 49.1406 43.5391C48.8281 43.0443 48.4766 42.6276 48.0859 42.2891C47.6953 41.9505 47.2917 41.6641 46.875 41.4297C45.8854 40.9349 44.7786 40.6354 43.5547 40.5312H37.8516V55.1406H43.1641ZM89.3359 31.3125C90.3776 31.3125 91.4323 31.3516 92.5 31.4297C93.5677 31.5078 94.5312 31.7292 95.3906 32.0938C96.25 32.4583 96.9531 33.0182 97.5 33.7734C98.0469 34.5026 98.3203 35.5312 98.3203 36.8594C98.3203 38.1875 98.0469 39.2292 97.5 39.9844C96.9531 40.7135 96.25 41.2604 95.3906 41.625C94.5312 41.9896 93.5677 42.2109 92.5 42.2891C91.4323 42.3672 90.3776 42.4062 89.3359 42.4062H80.0391V53.0312H84.9609C86.0026 53.0312 87.0443 53.0703 88.0859 53.1484C89.1536 53.2005 90.0911 53.4089 90.8984 53.7734C91.7318 54.112 92.4089 54.6458 92.9297 55.375C93.4505 56.0781 93.7109 57.0677 93.7109 58.3438C93.7109 59.6458 93.4505 60.6484 92.9297 61.3516C92.4089 62.0547 91.7318 62.5885 90.8984 62.9531C90.0911 63.2917 89.1536 63.5 88.0859 63.5781C87.0443 63.6302 86.0026 63.6562 84.9609 63.6562H80.0391V74.9062H89.3359C90.3776 74.9062 91.4323 74.9453 92.5 75.0234C93.5677 75.1016 94.5312 75.3229 95.3906 75.6875C96.25 76.026 96.9531 76.5729 97.5 77.3281C98.0469 78.0573 98.3203 79.0729 98.3203 80.375C98.3203 81.7292 98.0339 82.7839 97.4609 83.5391C96.9141 84.2943 96.2109 84.8542 95.3516 85.2188C94.4922 85.5833 93.5286 85.8047 92.4609 85.8828C91.3932 85.9609 90.3516 86 89.3359 86H74.0234C72.5651 86 71.4323 85.7396 70.625 85.2188C69.8438 84.6979 69.2708 84.0208 68.9062 83.1875C68.5417 82.3281 68.3203 81.3646 68.2422 80.2969C68.1901 79.2292 68.1641 78.1354 68.1641 77.0156V40.2969C68.1641 39.1771 68.1901 38.0833 68.2422 37.0156C68.3203 35.9479 68.5417 34.9974 68.9062 34.1641C69.2708 33.3047 69.8438 32.6146 70.625 32.0938C71.4323 31.5729 72.5651 31.3125 74.0234 31.3125H89.3359ZM130.352 31.3125C131.393 31.3125 132.435 31.3516 133.477 31.4297C134.544 31.5078 135.508 31.7292 136.367 32.0938C137.227 32.4583 137.917 33.0182 138.438 33.7734C138.984 34.5026 139.258 35.5312 139.258 36.8594C139.258 38.1615 138.984 39.1901 138.438 39.9453C137.917 40.6745 137.227 41.2214 136.367 41.5859C135.508 41.9505 134.544 42.1849 133.477 42.2891C132.435 42.3672 131.393 42.4062 130.352 42.4062H126.367V77.0938C126.367 78.2135 126.328 79.3073 126.25 80.375C126.198 81.4427 125.99 82.3932 125.625 83.2266C125.26 84.0599 124.674 84.737 123.867 85.2578C123.06 85.7526 121.914 86 120.43 86C118.945 86 117.799 85.7526 116.992 85.2578C116.185 84.737 115.599 84.0599 115.234 83.2266C114.87 82.3932 114.648 81.4427 114.57 80.375C114.518 79.3073 114.492 78.2135 114.492 77.0938V42.4062H110.508C109.466 42.4062 108.411 42.3672 107.344 42.2891C106.302 42.1849 105.352 41.9505 104.492 41.5859C103.633 41.2214 102.93 40.6745 102.383 39.9453C101.862 39.1901 101.602 38.1615 101.602 36.8594C101.602 35.5312 101.862 34.5026 102.383 33.7734C102.93 33.0182 103.633 32.4583 104.492 32.0938C105.352 31.7292 106.302 31.5078 107.344 31.4297C108.411 31.3516 109.466 31.3125 110.508 31.3125H130.352Z" fill="#8758FF"/>
<path d="M158.062 69.5156C158.062 71.7292 157.503 73.3698 156.383 74.4375C155.263 75.4792 153.688 76 151.656 76C149.573 76 147.971 75.4792 146.852 74.4375C145.732 73.3698 145.172 71.7292 145.172 69.5156C145.172 67.276 145.732 65.6484 146.852 64.6328C147.971 63.6172 149.573 63.1094 151.656 63.1094C153.818 63.1094 155.419 63.6172 156.461 64.6328C157.529 65.6484 158.062 67.276 158.062 69.5156ZM157.984 49.0469C157.984 51.2604 157.424 52.901 156.305 53.9688C155.185 55.0104 153.609 55.5312 151.578 55.5312C149.495 55.5312 147.893 55.0104 146.773 53.9688C145.654 52.901 145.094 51.2604 145.094 49.0469C145.094 46.8073 145.654 45.1797 146.773 44.1641C147.893 43.1484 149.495 42.6406 151.578 42.6406C153.74 42.6406 155.341 43.1484 156.383 44.1641C157.451 45.1797 157.984 46.8073 157.984 49.0469Z" fill="#8758FF"/>
<path d="M185.594 31.3125C187.964 31.3125 190.164 31.612 192.195 32.2109C194.253 32.8099 196.036 33.7083 197.547 34.9062C199.083 36.0781 200.281 37.5495 201.141 39.3203C202.026 41.0911 202.469 43.1615 202.469 45.5312V69.75C202.469 71.7812 202.247 73.5781 201.805 75.1406C201.362 76.6771 200.776 78.0182 200.047 79.1641C199.344 80.2839 198.536 81.2474 197.625 82.0547C196.714 82.8359 195.789 83.474 194.852 83.9688C192.612 85.1667 190.073 85.8438 187.234 86H174.266C172.781 86 171.635 85.7526 170.828 85.2578C170.021 84.737 169.435 84.0599 169.07 83.2266C168.706 82.3672 168.484 81.4036 168.406 80.3359C168.354 79.2682 168.328 78.1615 168.328 77.0156V40.2188C168.328 39.099 168.354 38.0052 168.406 36.9375C168.484 35.8698 168.706 34.9193 169.07 34.0859C169.435 33.2526 170.021 32.5885 170.828 32.0938C171.635 31.5729 172.781 31.3125 174.266 31.3125H185.594ZM180.203 40.4531V76.7031H185.281C186.401 76.651 187.404 76.3906 188.289 75.9219C188.654 75.7396 189.018 75.4922 189.383 75.1797C189.747 74.8672 190.073 74.5026 190.359 74.0859C190.646 73.6432 190.867 73.1224 191.023 72.5234C191.206 71.9245 191.297 71.2344 191.297 70.4531V47.4062C191.297 46.5469 191.206 45.7917 191.023 45.1406C190.867 44.4635 190.646 43.8776 190.359 43.3828C190.073 42.888 189.747 42.4714 189.383 42.1328C189.018 41.7943 188.654 41.5208 188.289 41.3125C187.404 40.8177 186.401 40.5312 185.281 40.4531H180.203ZM212.391 40.2969C212.391 39.1771 212.443 38.0833 212.547 37.0156C212.677 35.9479 212.951 34.9974 213.367 34.1641C213.81 33.3047 214.461 32.6146 215.32 32.0938C216.18 31.5729 217.365 31.3125 218.875 31.3125C220.385 31.3125 221.57 31.5729 222.43 32.0938C223.289 32.6146 223.927 33.3047 224.344 34.1641C224.786 34.9974 225.06 35.9479 225.164 37.0156C225.294 38.0833 225.359 39.1771 225.359 40.2969V77.0156C225.359 78.1615 225.307 79.2682 225.203 80.3359C225.099 81.4036 224.826 82.3672 224.383 83.2266C223.966 84.0599 223.315 84.737 222.43 85.2578C221.57 85.7526 220.385 86 218.875 86C217.365 86 216.18 85.7526 215.32 85.2578C214.461 84.737 213.81 84.0599 213.367 83.2266C212.951 82.3672 212.677 81.4036 212.547 80.3359C212.443 79.2682 212.391 78.1615 212.391 77.0156V40.2969ZM235.906 46.7812C235.906 44.2812 236.271 42.1589 237 40.4141C237.729 38.6432 238.654 37.1719 239.773 36C240.919 34.8281 242.169 33.9167 243.523 33.2656C244.904 32.5885 246.232 32.0807 247.508 31.7422C248.81 31.4036 249.982 31.1953 251.023 31.1172C252.065 31.0391 252.833 31 253.328 31H254.656C255.151 31 255.919 31.0391 256.961 31.1172C258.003 31.1953 259.161 31.4036 260.438 31.7422C261.714 32.0807 263.029 32.5885 264.383 33.2656C265.763 33.9167 267 34.8281 268.094 36C269.214 37.1719 270.125 38.6432 270.828 40.4141C271.557 42.1589 271.922 44.2812 271.922 46.7812V70.1406C271.922 72.7188 271.557 74.9062 270.828 76.7031C270.125 78.5 269.214 79.9974 268.094 81.1953C267 82.3932 265.763 83.3438 264.383 84.0469C263.029 84.724 261.714 85.2318 260.438 85.5703C259.161 85.9089 258.003 86.1172 256.961 86.1953C255.919 86.2734 255.151 86.3125 254.656 86.3125H253.328C252.833 86.3125 252.065 86.2734 251.023 86.1953C249.982 86.1172 248.81 85.9089 247.508 85.5703C246.232 85.2318 244.904 84.724 243.523 84.0469C242.169 83.3438 240.919 82.3932 239.773 81.1953C238.654 79.9974 237.729 78.5 237 76.7031C236.271 74.9062 235.906 72.7188 235.906 70.1406V46.7812ZM248.875 71.625C248.927 72.5885 249.148 73.4349 249.539 74.1641C249.878 74.8151 250.385 75.401 251.062 75.9219C251.766 76.4427 252.755 76.7031 254.031 76.7031C255.281 76.7031 256.245 76.4427 256.922 75.9219C257.599 75.401 258.107 74.8151 258.445 74.1641C258.81 73.4349 259.031 72.5885 259.109 71.625V46.1562C259.031 45.2188 258.81 44.3724 258.445 43.6172C258.107 42.9922 257.599 42.4193 256.922 41.8984C256.245 41.3516 255.281 41.0781 254.031 41.0781C252.755 41.0781 251.766 41.3516 251.062 41.8984C250.385 42.4193 249.878 42.9922 249.539 43.6172C249.148 44.3724 248.927 45.2188 248.875 46.1562V71.625Z" fill="#8758FF"/>
</svg>
