<svg width="246" height="56" viewBox="0 0 246 56" fill="none" xmlns="http://www.w3.org/2000/svg">
<path d="M11.875 33.4375V46.0938C11.875 47.2135 11.8359 48.3073 11.7578 49.375C11.7057 50.4427 11.4844 51.3932 11.0938 52.2266C10.7292 53.0599 10.1432 53.737 9.33594 54.2578C8.52865 54.7526 7.36979 55 5.85938 55C4.40104 55 3.26823 54.7526 2.46094 54.2578C1.67969 53.737 1.10677 53.0599 0.742188 52.2266C0.377604 51.3932 0.15625 50.4427 0.078125 49.375C0.0260417 48.3073 0 47.2135 0 46.0938V9.21875C0 8.09896 0.0260417 7.00521 0.078125 5.9375C0.15625 4.86979 0.377604 3.91927 0.742188 3.08594C1.10677 2.2526 1.67969 1.58854 2.46094 1.09375C3.26823 0.572917 4.40104 0.3125 5.85938 0.3125H18.75C21.9792 0.46875 24.8698 1.14583 27.4219 2.34375C28.5156 2.86458 29.5703 3.51562 30.5859 4.29688C31.6276 5.07812 32.5521 6.04167 33.3594 7.1875C34.1927 8.30729 34.8568 9.64844 35.3516 11.2109C35.8464 12.7474 36.0938 14.5312 36.0938 16.5625C36.0938 19.349 35.651 21.7969 34.7656 23.9062C33.9062 25.9896 32.6432 27.7474 30.9766 29.1797C29.3359 30.5859 27.3177 31.6536 24.9219 32.3828C22.5521 33.0859 19.8698 33.4375 16.875 33.4375H11.875ZM17.1875 24.1406C18.4896 24.0625 19.6615 23.75 20.7031 23.2031C21.1458 22.9688 21.5755 22.6693 21.9922 22.3047C22.4089 21.9401 22.7865 21.4974 23.125 20.9766C23.4635 20.4297 23.724 19.7917 23.9062 19.0625C24.1146 18.3333 24.2188 17.5 24.2188 16.5625C24.2188 15.6771 24.1146 14.9089 23.9062 14.2578C23.724 13.5807 23.4766 13.0078 23.1641 12.5391C22.8516 12.0443 22.5 11.6276 22.1094 11.2891C21.7188 10.9505 21.3151 10.6641 20.8984 10.4297C19.9089 9.9349 18.8021 9.63542 17.5781 9.53125H11.875V24.1406H17.1875Z" fill="#8758FF"/>
<path d="M63.3594 0.3125C64.401 0.3125 65.4557 0.351562 66.5234 0.429688C67.5911 0.507812 68.5547 0.729167 69.4141 1.09375C70.2734 1.45833 70.9766 2.01823 71.5234 2.77344C72.0703 3.5026 72.3438 4.53125 72.3438 5.85938C72.3438 7.1875 72.0703 8.22917 71.5234 8.98438C70.9766 9.71354 70.2734 10.2604 69.4141 10.625C68.5547 10.9896 67.5911 11.2109 66.5234 11.2891C65.4557 11.3672 64.401 11.4062 63.3594 11.4062H54.0625V22.0312H58.9844C60.026 22.0312 61.0677 22.0703 62.1094 22.1484C63.1771 22.2005 64.1146 22.4089 64.9219 22.7734C65.7552 23.112 66.4323 23.6458 66.9531 24.375C67.474 25.0781 67.7344 26.0677 67.7344 27.3438C67.7344 28.6458 67.474 29.6484 66.9531 30.3516C66.4323 31.0547 65.7552 31.5885 64.9219 31.9531C64.1146 32.2917 63.1771 32.5 62.1094 32.5781C61.0677 32.6302 60.026 32.6562 58.9844 32.6562H54.0625V43.9062H63.3594C64.401 43.9062 65.4557 43.9453 66.5234 44.0234C67.5911 44.1016 68.5547 44.3229 69.4141 44.6875C70.2734 45.026 70.9766 45.5729 71.5234 46.3281C72.0703 47.0573 72.3438 48.0729 72.3438 49.375C72.3438 50.7292 72.0573 51.7839 71.4844 52.5391C70.9375 53.2943 70.2344 53.8542 69.375 54.2188C68.5156 54.5833 67.5521 54.8047 66.4844 54.8828C65.4167 54.9609 64.375 55 63.3594 55H48.0469C46.5885 55 45.4557 54.7396 44.6484 54.2188C43.8672 53.6979 43.2943 53.0208 42.9297 52.1875C42.5651 51.3281 42.3438 50.3646 42.2656 49.2969C42.2135 48.2292 42.1875 47.1354 42.1875 46.0156V9.29688C42.1875 8.17708 42.2135 7.08333 42.2656 6.01562C42.3438 4.94792 42.5651 3.9974 42.9297 3.16406C43.2943 2.30469 43.8672 1.61458 44.6484 1.09375C45.4557 0.572917 46.5885 0.3125 48.0469 0.3125H63.3594Z" fill="#8758FF"/>
<path d="M104.375 0.3125C105.417 0.3125 106.458 0.351562 107.5 0.429688C108.568 0.507812 109.531 0.729167 110.391 1.09375C111.25 1.45833 111.94 2.01823 112.461 2.77344C113.008 3.5026 113.281 4.53125 113.281 5.85938C113.281 7.16146 113.008 8.1901 112.461 8.94531C111.94 9.67448 111.25 10.2214 110.391 10.5859C109.531 10.9505 108.568 11.1849 107.5 11.2891C106.458 11.3672 105.417 11.4062 104.375 11.4062H100.391V46.0938C100.391 47.2135 100.352 48.3073 100.273 49.375C100.221 50.4427 100.013 51.3932 99.6484 52.2266C99.2839 53.0599 98.6979 53.737 97.8906 54.2578C97.0833 54.7526 95.9375 55 94.4531 55C92.9688 55 91.8229 54.7526 91.0156 54.2578C90.2083 53.737 89.6224 53.0599 89.2578 52.2266C88.8932 51.3932 88.6719 50.4427 88.5938 49.375C88.5417 48.3073 88.5156 47.2135 88.5156 46.0938V11.4062H84.5312C83.4896 11.4062 82.4349 11.3672 81.3672 11.2891C80.3255 11.1849 79.375 10.9505 78.5156 10.5859C77.6562 10.2214 76.9531 9.67448 76.4062 8.94531C75.8854 8.1901 75.625 7.16146 75.625 5.85938C75.625 4.53125 75.8854 3.5026 76.4062 2.77344C76.9531 2.01823 77.6562 1.45833 78.5156 1.09375C79.375 0.729167 80.3255 0.507812 81.3672 0.429688C82.4349 0.351562 83.4896 0.3125 84.5312 0.3125H104.375Z" fill="#8758FF"/>
<path d="M132.086 38.5156C132.086 40.7292 131.526 42.3698 130.406 43.4375C129.286 44.4792 127.711 45 125.68 45C123.596 45 121.995 44.4792 120.875 43.4375C119.755 42.3698 119.195 40.7292 119.195 38.5156C119.195 36.276 119.755 34.6484 120.875 33.6328C121.995 32.6172 123.596 32.1094 125.68 32.1094C127.841 32.1094 129.443 32.6172 130.484 33.6328C131.552 34.6484 132.086 36.276 132.086 38.5156ZM132.008 18.0469C132.008 20.2604 131.448 21.901 130.328 22.9688C129.208 24.0104 127.633 24.5312 125.602 24.5312C123.518 24.5312 121.917 24.0104 120.797 22.9688C119.677 21.901 119.117 20.2604 119.117 18.0469C119.117 15.8073 119.677 14.1797 120.797 13.1641C121.917 12.1484 123.518 11.6406 125.602 11.6406C127.763 11.6406 129.365 12.1484 130.406 13.1641C131.474 14.1797 132.008 15.8073 132.008 18.0469Z" fill="#8758FF"/>
<path d="M159.617 0.3125C161.987 0.3125 164.188 0.611979 166.219 1.21094C168.276 1.8099 170.06 2.70833 171.57 3.90625C173.107 5.07812 174.305 6.54948 175.164 8.32031C176.049 10.0911 176.492 12.1615 176.492 14.5312V38.75C176.492 40.7812 176.271 42.5781 175.828 44.1406C175.385 45.6771 174.799 47.0182 174.07 48.1641C173.367 49.2839 172.56 50.2474 171.648 51.0547C170.737 51.8359 169.812 52.474 168.875 52.9688C166.635 54.1667 164.096 54.8438 161.258 55H148.289C146.805 55 145.659 54.7526 144.852 54.2578C144.044 53.737 143.458 53.0599 143.094 52.2266C142.729 51.3672 142.508 50.4036 142.43 49.3359C142.378 48.2682 142.352 47.1615 142.352 46.0156V9.21875C142.352 8.09896 142.378 7.00521 142.43 5.9375C142.508 4.86979 142.729 3.91927 143.094 3.08594C143.458 2.2526 144.044 1.58854 144.852 1.09375C145.659 0.572917 146.805 0.3125 148.289 0.3125H159.617ZM154.227 9.45312V45.7031H159.305C160.424 45.651 161.427 45.3906 162.312 44.9219C162.677 44.7396 163.042 44.4922 163.406 44.1797C163.771 43.8672 164.096 43.5026 164.383 43.0859C164.669 42.6432 164.891 42.1224 165.047 41.5234C165.229 40.9245 165.32 40.2344 165.32 39.4531V16.4062C165.32 15.5469 165.229 14.7917 165.047 14.1406C164.891 13.4635 164.669 12.8776 164.383 12.3828C164.096 11.888 163.771 11.4714 163.406 11.1328C163.042 10.7943 162.677 10.5208 162.312 10.3125C161.427 9.81771 160.424 9.53125 159.305 9.45312H154.227Z" fill="#8758FF"/>
<path d="M186.414 9.29688C186.414 8.17708 186.466 7.08333 186.57 6.01562C186.701 4.94792 186.974 3.9974 187.391 3.16406C187.833 2.30469 188.484 1.61458 189.344 1.09375C190.203 0.572917 191.388 0.3125 192.898 0.3125C194.409 0.3125 195.594 0.572917 196.453 1.09375C197.312 1.61458 197.951 2.30469 198.367 3.16406C198.81 3.9974 199.083 4.94792 199.188 6.01562C199.318 7.08333 199.383 8.17708 199.383 9.29688V46.0156C199.383 47.1615 199.331 48.2682 199.227 49.3359C199.122 50.4036 198.849 51.3672 198.406 52.2266C197.99 53.0599 197.339 53.737 196.453 54.2578C195.594 54.7526 194.409 55 192.898 55C191.388 55 190.203 54.7526 189.344 54.2578C188.484 53.737 187.833 53.0599 187.391 52.2266C186.974 51.3672 186.701 50.4036 186.57 49.3359C186.466 48.2682 186.414 47.1615 186.414 46.0156V9.29688Z" fill="#8758FF"/>
<path d="M209.93 15.7812C209.93 13.2812 210.294 11.1589 211.023 9.41406C211.753 7.64323 212.677 6.17188 213.797 5C214.943 3.82812 216.193 2.91667 217.547 2.26562C218.927 1.58854 220.255 1.08073 221.531 0.742188C222.833 0.403646 224.005 0.195312 225.047 0.117188C226.089 0.0390625 226.857 0 227.352 0H228.68C229.174 0 229.943 0.0390625 230.984 0.117188C232.026 0.195312 233.185 0.403646 234.461 0.742188C235.737 1.08073 237.052 1.58854 238.406 2.26562C239.786 2.91667 241.023 3.82812 242.117 5C243.237 6.17188 244.148 7.64323 244.852 9.41406C245.581 11.1589 245.945 13.2812 245.945 15.7812V39.1406C245.945 41.7188 245.581 43.9062 244.852 45.7031C244.148 47.5 243.237 48.9974 242.117 50.1953C241.023 51.3932 239.786 52.3438 238.406 53.0469C237.052 53.724 235.737 54.2318 234.461 54.5703C233.185 54.9089 232.026 55.1172 230.984 55.1953C229.943 55.2734 229.174 55.3125 228.68 55.3125H227.352C226.857 55.3125 226.089 55.2734 225.047 55.1953C224.005 55.1172 222.833 54.9089 221.531 54.5703C220.255 54.2318 218.927 53.724 217.547 53.0469C216.193 52.3438 214.943 51.3932 213.797 50.1953C212.677 48.9974 211.753 47.5 211.023 45.7031C210.294 43.9062 209.93 41.7188 209.93 39.1406V15.7812ZM222.898 40.625C222.951 41.5885 223.172 42.4349 223.562 43.1641C223.901 43.8151 224.409 44.401 225.086 44.9219C225.789 45.4427 226.779 45.7031 228.055 45.7031C229.305 45.7031 230.268 45.4427 230.945 44.9219C231.622 44.401 232.13 43.8151 232.469 43.1641C232.833 42.4349 233.055 41.5885 233.133 40.625V15.1562C233.055 14.2188 232.833 13.3724 232.469 12.6172C232.13 11.9922 231.622 11.4193 230.945 10.8984C230.268 10.3516 229.305 10.0781 228.055 10.0781C226.779 10.0781 225.789 10.3516 225.086 10.8984C224.409 11.4193 223.901 11.9922 223.562 12.6172C223.172 13.3724 222.951 14.2188 222.898 15.1562V40.625Z" fill="#8758FF"/>
</svg>
