<svg width="160" height="160" viewBox="0 0 160 160" fill="none" xmlns="http://www.w3.org/2000/svg">
<path d="M116 86C116 105.882 99.8822 122 80 122C60.1177 122 44 105.882 44 86C44 66.1177 60.1177 50 80 50C99.8822 50 116 66.1177 116 86Z" fill="white"/>
<path d="M56 20L41.36 33.3333H16C7.2 33.3333 0 39.3333 0 46.6667V126.667C0 134 7.2 140 16 140H144C152.8 140 160 134 160 126.667V46.6667C160 39.3333 152.8 33.3333 144 33.3333H118.64L104 20H56Z" fill="url(#paint0_linear_911_3008)"/>
<path d="M116 86C116 105.882 99.8822 122 80 122C60.1177 122 44 105.882 44 86C44 66.1177 60.1177 50 80 50C99.8822 50 116 66.1177 116 86Z" fill="white"/>
<path d="M134 62C134 65.866 130.866 69 127 69C123.134 69 120 65.866 120 62C120 58.134 123.134 55 127 55C130.866 55 134 58.134 134 62Z" fill="#FFC751"/>
<path d="M92.46 92.6733C90.43 90.2933 88.7266 88.2633 86.6733 85.8833C85.6 84.6233 84.2233 83.3633 82.59 82.8033C82.3333 82.71 82.0766 82.64 81.82 82.5933C81.2366 82.5 80.6066 82.5 80 82.5C79.3933 82.5 78.7633 82.5 78.1566 82.6167C77.9 82.6633 77.6433 82.7333 77.3866 82.8267C75.7533 83.3867 74.4 84.6467 73.3033 85.9067C71.2733 88.2867 69.57 90.3167 67.5166 92.6967C64.46 95.7533 60.7033 99.1367 61.4033 103.873C62.08 106.253 63.7833 108.61 66.84 109.287C68.5433 109.637 73.98 108.26 79.7666 108.26H80.1866C85.9733 108.26 91.41 109.613 93.1133 109.287C96.17 108.61 97.8733 106.23 98.55 103.873C99.2733 99.1133 95.5166 95.73 92.46 92.6733Z" fill="url(#paint1_linear_911_3008)"/>
<path d="M97.5 86C100.722 86 103.333 83.3883 103.333 80.1667C103.333 76.945 100.722 74.3333 97.5 74.3333C94.2783 74.3333 91.6667 76.945 91.6667 80.1667C91.6667 83.3883 94.2783 86 97.5 86Z" fill="url(#paint2_linear_911_3008)"/>
<path d="M87 76.6667C90.2217 76.6667 92.8333 74.055 92.8333 70.8333C92.8333 67.6117 90.2217 65 87 65C83.7783 65 81.1667 67.6117 81.1667 70.8333C81.1667 74.055 83.7783 76.6667 87 76.6667Z" fill="url(#paint3_linear_911_3008)"/>
<path d="M73 76.6667C76.2217 76.6667 78.8333 74.055 78.8333 70.8333C78.8333 67.6117 76.2217 65 73 65C69.7783 65 67.1667 67.6117 67.1667 70.8333C67.1667 74.055 69.7783 76.6667 73 76.6667Z" fill="url(#paint4_linear_911_3008)"/>
<path d="M62.5 86C65.7217 86 68.3333 83.3883 68.3333 80.1667C68.3333 76.945 65.7217 74.3333 62.5 74.3333C59.2783 74.3333 56.6667 76.945 56.6667 80.1667C56.6667 83.3883 59.2783 86 62.5 86Z" fill="url(#paint5_linear_911_3008)"/>
<defs>
<linearGradient id="paint0_linear_911_3008" x1="0" y1="20" x2="160" y2="140" gradientUnits="userSpaceOnUse">
<stop stop-color="#8758FF"/>
<stop offset="1" stop-color="#5CB8E4"/>
</linearGradient>
<linearGradient id="paint1_linear_911_3008" x1="56.9998" y1="65" x2="103" y2="109" gradientUnits="userSpaceOnUse">
<stop stop-color="#8758FF"/>
<stop offset="1" stop-color="#5CB8E4"/>
</linearGradient>
<linearGradient id="paint2_linear_911_3008" x1="56.9998" y1="65" x2="103" y2="109" gradientUnits="userSpaceOnUse">
<stop stop-color="#8758FF"/>
<stop offset="1" stop-color="#5CB8E4"/>
</linearGradient>
<linearGradient id="paint3_linear_911_3008" x1="56.9998" y1="65" x2="103" y2="109" gradientUnits="userSpaceOnUse">
<stop stop-color="#8758FF"/>
<stop offset="1" stop-color="#5CB8E4"/>
</linearGradient>
<linearGradient id="paint4_linear_911_3008" x1="56.9998" y1="65" x2="103" y2="109" gradientUnits="userSpaceOnUse">
<stop stop-color="#8758FF"/>
<stop offset="1" stop-color="#5CB8E4"/>
</linearGradient>
<linearGradient id="paint5_linear_911_3008" x1="56.9998" y1="65" x2="103" y2="109" gradientUnits="userSpaceOnUse">
<stop stop-color="#8758FF"/>
<stop offset="1" stop-color="#5CB8E4"/>
</linearGradient>
</defs>
</svg>
